<svg id="Image_3" data-name="Image 3" xmlns="http://www.w3.org/2000/svg" viewBox="0 0 73.321 79.273">
  <defs>
    <style>
      .cls-1 {
        fill: #ffcd52;
      }

      .cls-2 {
        fill: #a0c553;
      }

      .cls-3 {
        fill: #ea5f66;
      }

      .cls-4 {
        fill: #05a2b5;
      }
    </style>
  </defs>
  <title>helptap_logo</title>
  <g id="Layer_1_Image" data-name="Layer 1 Image">
    <g>
      <rect class="cls-1" x="54.556" width="18.765" height="79.273" rx="9.383" ry="9.383"/>
      <rect class="cls-2" width="18.765" height="79.273" rx="9.383" ry="9.383"/>
      <path class="cls-3" d="M67.369,82.321c-7.215-.2-14.183-3.592-19.528-10.232A7.331,7.331,0,0,1,59.38,63.046c5.594,7.059,16.216,5.934,19.9-2.16a12.735,12.735,0,0,0,.8-3.74,7.345,7.345,0,0,1,10.274-5.819,7.79,7.79,0,0,1,4.419,8.811c-1.48,8.5-5.946,14.995-13.56,19.1C77.347,81.318,73.112,82.339,67.369,82.321Z" transform="translate(-24.72 -21.6)"/>
      <path class="cls-4" d="M55.635,40.689c7.215,0.2,14.183,3.592,19.528,10.232a7.331,7.331,0,0,1-11.539,9.043c-5.594-7.059-16.216-5.934-19.9,2.16a12.735,12.735,0,0,0-.8,3.74,7.345,7.345,0,0,1-10.274,5.819,7.79,7.79,0,0,1-4.419-8.811c1.48-8.5,5.946-14.995,13.56-19.1C45.657,41.692,49.892,40.671,55.635,40.689Z" transform="translate(-24.72 -21.6)"/>
    </g>
  </g>
</svg>
